<svg version="1.1" id="Layer_1" xmlns="http://www.w3.org/2000/svg" xmlns:xlink="http://www.w3.org/1999/xlink" x="0px" y="0px"
	 width="100%" viewBox="0 0 366 92" enable-background="new 0 0 366 92" xml:space="preserve">
<path fill="#000000" opacity="1.000000" stroke="none" 
	d="
M79.000000,1.000000 
	C174.939545,1.000000 270.879089,1.000000 366.909302,1.000000 
	C366.909302,31.586655 366.909302,62.173668 366.909302,93.000000 
	C262.312561,93.000000 157.624939,93.000000 52.167610,92.709274 
	C53.359764,89.043053 55.187626,85.577637 57.358723,82.342560 
	C58.084198,81.261551 59.619267,80.273651 60.901035,80.098686 
	C65.128319,79.521629 69.404282,79.248123 73.670181,79.017677 
	C83.579163,78.482376 92.938042,68.898857 92.985611,59.002426 
	C93.044891,46.669731 93.275841,34.328133 92.900658,22.006578 
	C92.659828,14.097264 89.461159,7.507714 81.733612,3.881565 
	C80.617462,3.357809 79.901276,1.981683 79.000000,1.000000 
M286.576965,36.076347 
	C286.576965,50.290169 286.576965,64.503990 286.576965,78.765625 
	C288.551514,78.765625 290.621277,78.765625 293.252991,78.765625 
	C293.252991,73.389191 293.252991,68.231705 293.252991,62.769768 
	C301.013916,67.519096 308.918945,66.931076 313.100830,61.300949 
	C317.666138,55.154617 318.071930,46.197678 312.964233,39.888382 
	C308.728912,34.656700 300.171021,34.160362 293.447723,38.586727 
	C292.364868,36.002617 292.364868,36.002617 286.576965,36.076347 
M343.096771,64.993507 
	C352.212921,59.982830 354.424469,51.256138 349.052673,41.491753 
	C345.479431,34.996632 336.751038,33.745853 328.500153,37.140320 
	C326.505219,36.663681 324.510284,36.187042 322.209717,35.637375 
	C322.209717,50.520107 322.209717,64.593338 322.209717,78.803497 
	C324.156403,78.803497 325.892242,78.803497 327.987671,78.803497 
	C327.987671,73.244247 327.987671,67.865150 327.987671,61.954632 
	C332.625732,65.348335 337.037628,67.491226 343.096771,64.993507 
M194.005722,50.508678 
	C194.331619,51.414795 194.916901,52.313187 194.944138,53.228191 
	C195.299271,65.157013 209.534668,69.803215 217.759583,62.455536 
	C218.751633,67.257263 222.337692,63.977737 224.805069,65.162354 
	C224.805069,55.192070 224.805069,45.766064 224.805069,35.462627 
	C221.940918,36.186436 219.483078,36.807564 216.160248,37.647289 
	C210.972610,33.580036 202.271713,34.471676 198.068771,40.605133 
	C196.230453,43.287853 195.352646,46.628769 194.005722,50.508678 
M268.466156,36.937511 
	C261.615936,34.099396 255.593750,35.555275 252.008484,40.916164 
	C247.415817,47.783443 247.941483,56.457027 253.288773,61.775562 
	C257.843109,66.305428 264.182892,68.505775 271.144897,63.425854 
	C274.291077,64.260574 276.382874,64.815552 278.998474,65.509506 
	C278.998474,55.728645 279.003052,46.944077 278.988983,38.159542 
	C278.987946,37.523117 278.851227,36.886913 278.744232,35.962357 
	C276.812408,36.068264 273.563446,35.880619 273.480682,36.307236 
	C272.607727,40.806747 270.685547,37.265976 268.466156,36.937511 
M145.937668,57.596123 
	C142.934204,58.217335 139.820511,59.674816 136.948853,59.296242 
	C129.592133,58.326397 127.097839,51.720657 127.935608,43.580486 
	C128.478546,38.305077 132.115051,35.958759 136.210190,34.431278 
	C139.875870,33.063988 143.808105,33.576061 146.458572,37.023930 
	C149.081970,40.436577 152.271408,40.568726 155.964005,39.536083 
	C154.074036,31.499474 144.853104,26.434917 135.364578,28.011250 
	C127.319519,29.347778 119.124649,39.480995 120.115829,47.433140 
	C121.695580,60.107235 128.669769,65.255318 139.365814,65.906548 
	C148.013748,66.433075 155.161575,60.959923 155.692673,54.268002 
	C152.119278,53.505669 148.827850,53.661716 145.937668,57.596123 
M190.000000,48.814301 
	C189.876114,44.023212 188.549805,39.609207 184.218262,37.137642 
	C179.315872,34.340351 174.199341,34.753357 168.871140,38.579247 
	C168.871140,33.873478 168.871140,29.975376 168.871140,25.917652 
	C166.626602,26.039715 164.885529,26.134399 163.299637,26.220644 
	C163.299637,39.396740 163.299637,52.147224 163.299637,65.064453 
	C165.357819,64.956680 167.101425,64.865379 168.512436,64.791496 
	C169.009964,58.648994 169.457794,52.941696 169.938965,47.237217 
	C170.311157,42.824947 173.409012,41.399242 177.086487,41.713619 
	C181.360611,42.078999 183.042053,45.137589 183.009613,49.270020 
	C182.969391,54.393944 182.999969,59.518425 182.999969,64.808327 
	C185.472672,64.808327 187.541107,64.808327 190.000000,64.808327 
	C190.000000,59.667709 190.000000,54.708523 190.000000,48.814301 
M240.591782,42.004940 
	C242.353134,42.004940 244.114487,42.004940 246.067307,42.004940 
	C245.957306,39.633221 245.876343,37.887436 245.796722,36.170765 
	C243.308228,36.021156 241.224731,35.895893 239.165100,35.772068 
	C239.020523,33.315376 238.897690,31.227934 238.763763,28.952253 
	C236.658600,29.044212 234.912994,29.120462 232.983658,29.204741 
	C232.983658,31.531349 232.983658,33.491619 232.983658,35.716457 
	C231.609268,35.914242 230.396622,36.088749 229.112762,36.273502 
	C229.112762,38.161598 229.112762,39.790035 229.112762,41.511185 
	C230.448547,41.870529 231.750076,42.220657 233.000046,42.556915 
	C233.000046,48.250378 232.977478,53.577538 233.007462,58.904404 
	C233.029831,62.879902 235.084244,64.923203 239.052307,64.992714 
	C241.328476,65.032593 243.605896,64.999947 246.091690,64.999947 
	C245.959076,62.998142 245.863693,61.558372 245.754211,59.905758 
	C242.019333,60.671383 239.329529,59.371490 239.129379,55.820286 
	C238.872314,51.259289 239.441956,46.651691 240.591782,42.004940 
z"/>
<path fill="#077EFF" opacity="1.000000" stroke="none" 
	d="
M78.531342,1.000000 
	C79.901276,1.981683 80.617462,3.357809 81.733612,3.881565 
	C89.461159,7.507714 92.659828,14.097264 92.900658,22.006578 
	C93.275841,34.328133 93.044891,46.669731 92.985611,59.002426 
	C92.938042,68.898857 83.579163,78.482376 73.670181,79.017677 
	C69.404282,79.248123 65.128319,79.521629 60.901035,80.098686 
	C59.619267,80.273651 58.084198,81.261551 57.358723,82.342560 
	C55.187626,85.577637 53.359764,89.043053 51.698952,92.709274 
	C48.969406,93.000000 45.938812,93.000000 42.755165,92.709274 
	C38.892925,85.606178 36.272099,78.723129 25.585764,79.605965 
	C15.853629,80.409966 7.164148,75.880432 2.491573,66.163765 
	C2.376873,65.925240 1.513951,66.046524 1.000000,66.000000 
	C1.000000,49.312439 1.000000,32.624878 1.303385,15.750753 
	C5.036211,9.973143 8.357381,4.274033 15.185906,2.092195 
	C15.235229,2.076437 15.066770,1.379091 15.000000,1.000000 
	C36.020893,1.000000 57.041790,1.000000 78.531342,1.000000 
M49.450577,46.022511 
	C51.624420,43.778423 52.188461,41.091530 49.441368,39.367031 
	C47.951969,38.432053 45.393147,39.200645 43.316730,39.200783 
	C43.353661,41.397907 42.817402,43.863865 43.668736,45.679020 
	C44.096004,46.590019 47.048641,46.316586 49.450577,46.022511 
M24.948538,45.418953 
	C27.005375,45.603210 29.231213,46.322300 31.048378,45.748081 
	C31.969168,45.457123 32.968719,42.462063 32.466785,41.352905 
	C31.806105,39.892971 29.695379,38.159840 28.221107,38.171593 
	C23.782223,38.206989 23.507469,41.363556 24.948538,45.418953 
M63.170506,46.654724 
	C67.724136,48.094444 68.657295,44.678188 69.999123,41.820011 
	C67.861649,38.720821 65.344666,36.289295 61.918236,39.181374 
	C59.413395,41.295582 60.163658,44.015530 63.170506,46.654724 
z"/>
<path fill="#000000" opacity="1.000000" stroke="none" 
	d="
M1.000000,66.468658 
	C1.513951,66.046524 2.376873,65.925240 2.491573,66.163765 
	C7.164148,75.880432 15.853629,80.409966 25.585764,79.605965 
	C36.272099,78.723129 38.892925,85.606178 42.301056,92.709274 
	C28.421879,93.000000 14.843759,93.000000 1.000000,93.000000 
	C1.000000,84.314240 1.000000,75.625786 1.000000,66.468658 
z"/>
<path fill="#000000" opacity="1.000000" stroke="none" 
	d="
M14.525872,1.000000 
	C15.066770,1.379091 15.235229,2.076437 15.185906,2.092195 
	C8.357381,4.274033 5.036211,9.973143 1.303385,15.282097 
	C1.000000,10.409401 1.000000,5.818802 1.000000,1.000000 
	C5.348905,1.000000 9.700325,1.000000 14.525872,1.000000 
z"/>
<path fill="#FFFFFF" opacity="1.000000" stroke="none" 
	d="
M287.036316,36.041237 
	C292.364868,36.002617 292.364868,36.002617 293.447723,38.586727 
	C300.171021,34.160362 308.728912,34.656700 312.964233,39.888382 
	C318.071930,46.197678 317.666138,55.154617 313.100830,61.300949 
	C308.918945,66.931076 301.013916,67.519096 293.252991,62.769768 
	C293.252991,68.231705 293.252991,73.389191 293.252991,78.765625 
	C290.621277,78.765625 288.551514,78.765625 286.576965,78.765625 
	C286.576965,64.503990 286.576965,50.290169 287.036316,36.041237 
M293.840881,54.318153 
	C294.558472,55.379440 295.137268,56.576603 296.018890,57.477364 
	C299.048676,60.572952 302.507355,60.959507 306.033112,58.429859 
	C309.616608,55.858768 310.380768,50.160175 308.090210,45.530327 
	C306.114075,41.535950 302.647308,41.138309 299.054291,42.092823 
	C294.189728,43.385139 292.711151,46.733044 293.840881,54.318153 
z"/>
<path fill="#FFFFFF" opacity="1.000000" stroke="none" 
	d="
M342.700073,65.081993 
	C337.037628,67.491226 332.625732,65.348335 327.987671,61.954632 
	C327.987671,67.865150 327.987671,73.244247 327.987671,78.803497 
	C325.892242,78.803497 324.156403,78.803497 322.209717,78.803497 
	C322.209717,64.593338 322.209717,50.520107 322.209717,35.637375 
	C324.510284,36.187042 326.505219,36.663681 328.500153,37.140320 
	C336.751038,33.745853 345.479431,34.996632 349.052673,41.491753 
	C354.424469,51.256138 352.212921,59.982830 342.700073,65.081993 
M334.442871,42.000748 
	C331.227539,42.686508 329.883301,44.795303 328.861145,47.879513 
	C327.322998,52.520638 329.234741,55.930294 332.266663,58.544407 
	C335.101837,60.988907 338.638123,60.643333 341.556122,57.912632 
	C344.512695,55.145771 345.903412,51.905502 344.390625,47.872421 
	C342.802338,43.638042 340.183868,40.978966 334.442871,42.000748 
z"/>
<path fill="#FFFFFF" opacity="1.000000" stroke="none" 
	d="
M194.022186,50.089737 
	C195.352646,46.628769 196.230453,43.287853 198.068771,40.605133 
	C202.271713,34.471676 210.972610,33.580036 216.160248,37.647289 
	C219.483078,36.807564 221.940918,36.186436 224.805069,35.462627 
	C224.805069,45.766064 224.805069,55.192070 224.805069,65.162354 
	C222.337692,63.977737 218.751633,67.257263 217.759583,62.455536 
	C209.534668,69.803215 195.299271,65.157013 194.944138,53.228191 
	C194.916901,52.313187 194.331619,51.414795 194.022186,50.089737 
M205.102936,58.628269 
	C210.116516,60.783218 213.759827,59.927055 216.588699,55.929150 
	C218.930130,52.620129 218.394241,46.911995 215.362671,43.866318 
	C212.189041,40.677917 208.580582,41.052933 205.027145,43.028561 
	C200.435730,45.581280 200.288132,52.248940 205.102936,58.628269 
z"/>
<path fill="#FFFFFF" opacity="1.000000" stroke="none" 
	d="
M268.862885,36.981899 
	C270.685547,37.265976 272.607727,40.806747 273.480682,36.307236 
	C273.563446,35.880619 276.812408,36.068264 278.744232,35.962357 
	C278.851227,36.886913 278.987946,37.523117 278.988983,38.159542 
	C279.003052,46.944077 278.998474,55.728645 278.998474,65.509506 
	C276.382874,64.815552 274.291077,64.260574 271.144897,63.425854 
	C264.182892,68.505775 257.843109,66.305428 253.288773,61.775562 
	C247.941483,56.457027 247.415817,47.783443 252.008484,40.916164 
	C255.593750,35.555275 261.615936,34.099396 268.862885,36.981899 
M260.452362,42.961319 
	C255.892532,45.899246 254.553574,49.876289 256.893951,54.407566 
	C258.765411,58.030869 261.140289,60.716492 266.063019,59.563225 
	C271.828339,58.212566 273.078186,52.166016 271.968658,47.509052 
	C270.900848,43.027184 266.339142,40.990162 260.452362,42.961319 
z"/>
<path fill="#FFFFFF" opacity="1.000000" stroke="none" 
	d="
M146.207703,57.304413 
	C148.827850,53.661716 152.119278,53.505669 155.692673,54.268002 
	C155.161575,60.959923 148.013748,66.433075 139.365814,65.906548 
	C128.669769,65.255318 121.695580,60.107235 120.115829,47.433140 
	C119.124649,39.480995 127.319519,29.347778 135.364578,28.011250 
	C144.853104,26.434917 154.074036,31.499474 155.964005,39.536083 
	C152.271408,40.568726 149.081970,40.436577 146.458572,37.023930 
	C143.808105,33.576061 139.875870,33.063988 136.210190,34.431278 
	C132.115051,35.958759 128.478546,38.305077 127.935608,43.580486 
	C127.097839,51.720657 129.592133,58.326397 136.948853,59.296242 
	C139.820511,59.674816 142.934204,58.217335 146.207703,57.304413 
z"/>
<path fill="#FFFFFF" opacity="1.000000" stroke="none" 
	d="
M190.000000,49.281822 
	C190.000000,54.708523 190.000000,59.667709 190.000000,64.808327 
	C187.541107,64.808327 185.472672,64.808327 182.999969,64.808327 
	C182.999969,59.518425 182.969391,54.393944 183.009613,49.270020 
	C183.042053,45.137589 181.360611,42.078999 177.086487,41.713619 
	C173.409012,41.399242 170.311157,42.824947 169.938965,47.237217 
	C169.457794,52.941696 169.009964,58.648994 168.512436,64.791496 
	C167.101425,64.865379 165.357819,64.956680 163.299637,65.064453 
	C163.299637,52.147224 163.299637,39.396740 163.299637,26.220644 
	C164.885529,26.134399 166.626602,26.039715 168.871140,25.917652 
	C168.871140,29.975376 168.871140,33.873478 168.871140,38.579247 
	C174.199341,34.753357 179.315872,34.340351 184.218262,37.137642 
	C188.549805,39.609207 189.876114,44.023212 190.000000,49.281822 
z"/>
<path fill="#FFFFFF" opacity="1.000000" stroke="none" 
	d="
M240.123611,42.034554 
	C239.441956,46.651691 238.872314,51.259289 239.129379,55.820286 
	C239.329529,59.371490 242.019333,60.671383 245.754211,59.905758 
	C245.863693,61.558372 245.959076,62.998142 246.091690,64.999947 
	C243.605896,64.999947 241.328476,65.032593 239.052307,64.992714 
	C235.084244,64.923203 233.029831,62.879902 233.007462,58.904404 
	C232.977478,53.577538 233.000046,48.250378 233.000046,42.556915 
	C231.750076,42.220657 230.448547,41.870529 229.112762,41.511185 
	C229.112762,39.790035 229.112762,38.161598 229.112762,36.273502 
	C230.396622,36.088749 231.609268,35.914242 232.983658,35.716457 
	C232.983658,33.491619 232.983658,31.531349 232.983658,29.204741 
	C234.912994,29.120462 236.658600,29.044212 238.763763,28.952253 
	C238.897690,31.227934 239.020523,33.315376 239.165100,35.772068 
	C241.224731,35.895893 243.308228,36.021156 245.796722,36.170765 
	C245.876343,37.887436 245.957306,39.633221 246.067307,42.004940 
	C244.114487,42.004940 242.353134,42.004940 240.123611,42.034554 
z"/>
<path fill="#FEFEFF" opacity="1.000000" stroke="none" 
	d="
M49.154892,46.300655 
	C47.048641,46.316586 44.096004,46.590019 43.668736,45.679020 
	C42.817402,43.863865 43.353661,41.397907 43.316727,39.200783 
	C45.393147,39.200645 47.951969,38.432053 49.441368,39.367031 
	C52.188461,41.091530 51.624420,43.778423 49.154892,46.300655 
z"/>
<path fill="#FFFFFF" opacity="1.000000" stroke="none" 
	d="
M24.661058,45.136456 
	C23.507469,41.363556 23.782223,38.206989 28.221107,38.171593 
	C29.695379,38.159840 31.806105,39.892971 32.466785,41.352905 
	C32.968719,42.462063 31.969168,45.457123 31.048378,45.748081 
	C29.231213,46.322300 27.005375,45.603210 24.661058,45.136456 
z"/>
<path fill="#FEFFFF" opacity="1.000000" stroke="none" 
	d="
M62.905918,46.377800 
	C60.163658,44.015530 59.413395,41.295582 61.918236,39.181374 
	C65.344666,36.289295 67.861649,38.720821 69.999123,41.820011 
	C68.657295,44.678188 67.724136,48.094444 62.905918,46.377800 
z"/>
<path fill="#000000" opacity="1.000000" stroke="none" 
	d="
M293.541626,54.045879 
	C292.711151,46.733044 294.189728,43.385139 299.054291,42.092823 
	C302.647308,41.138309 306.114075,41.535950 308.090210,45.530327 
	C310.380768,50.160175 309.616608,55.858768 306.033112,58.429859 
	C302.507355,60.959507 299.048676,60.572952 296.018890,57.477364 
	C295.137268,56.576603 294.558472,55.379440 293.541626,54.045879 
z"/>
<path fill="#000000" opacity="1.000000" stroke="none" 
	d="
M334.833069,41.986362 
	C340.183868,40.978966 342.802338,43.638042 344.390625,47.872421 
	C345.903412,51.905502 344.512695,55.145771 341.556122,57.912632 
	C338.638123,60.643333 335.101837,60.988907 332.266663,58.544407 
	C329.234741,55.930294 327.322998,52.520638 328.861145,47.879513 
	C329.883301,44.795303 331.227539,42.686508 334.833069,41.986362 
z"/>
<path fill="#000000" opacity="1.000000" stroke="none" 
	d="
M204.835571,58.335072 
	C200.288132,52.248940 200.435730,45.581280 205.027145,43.028561 
	C208.580582,41.052933 212.189041,40.677917 215.362671,43.866318 
	C218.394241,46.911995 218.930130,52.620129 216.588699,55.929150 
	C213.759827,59.927055 210.116516,60.783218 204.835571,58.335072 
z"/>
<path fill="#000000" opacity="1.000000" stroke="none" 
	d="
M260.742249,42.707386 
	C266.339142,40.990162 270.900848,43.027184 271.968658,47.509052 
	C273.078186,52.166016 271.828339,58.212566 266.063019,59.563225 
	C261.140289,60.716492 258.765411,58.030869 256.893951,54.407566 
	C254.553574,49.876289 255.892532,45.899246 260.742249,42.707386 
z"/>
</svg>